<?xml version="1.0" standalone="no"?>
<!DOCTYPE svg PUBLIC "-//W3C//DTD SVG 1.1//EN" "http://www.w3.org/Graphics/SVG/1.1/DTD/svg11.dtd" >
<svg xmlns="http://www.w3.org/2000/svg">
  <metadata>Created by iconfont</metadata>
  <defs>
  <font id="iconfont" horiz-adv-x="1024">
    <font-face
      font-family="iconfont"
      font-weight="400"
      font-stretch="normal"
      units-per-em="1024"
      ascent="896"
      descent="-128"
    />
      <missing-glyph />
      
      <glyph glyph-name="zhihu" unicode="&#58902;" d="M940.350346 100.124628c0-78.651314-63.771419-142.42171-142.42171-142.42171L228.226446-42.297083c-78.655408 0-142.42785 63.772442-142.42785 142.42171L85.798597 669.825794c0 78.657454 63.772442 142.43092 142.42785 142.43092l569.70219 0c78.658478 0 142.431943-63.771419 142.431943-142.43092L940.350346 100.124628 940.350346 100.124628 940.350346 100.124628zM415.621441 352.643851l125.592416 0c0 29.528524-13.923104 46.824445-13.923104 46.824445L418.29534 399.468296c2.589988 53.492308 4.909823 122.148991 5.738701 147.648758l103.677291 0c0 0-0.561795 43.872207-12.091386 43.872207L333.378321 590.989261c0 0 10.970866 57.373709 25.593911 82.700537 0 0-54.417377 2.936889-72.981175-69.622684-18.560728-72.559573-46.402843-116.430756-49.355081-124.446313-2.953262-8.012488 16.031115-3.794419 24.043602 0 8.015557 3.797489 44.294832 16.876366 54.840002 67.496254l56.350402 0c0.760317-32.081673 2.990101-130.396839 2.287089-147.648758L258.148943 399.468296c-16.449647-11.809977-21.935592-46.824445-21.935592-46.824445l132.591831 0c-5.529947-36.614919-15.239076-83.812871-28.817326-108.834754-21.512966-39.655162-32.903388-75.934436-110.525256-138.368394 0 0-12.656251-9.280364 26.576285-5.9055 39.231513 3.371794 76.356039 13.497409 102.087073 64.962547 13.377682 26.756387 27.212782 60.697407 38.005592 95.121428l-0.038886-0.12075 109.259426-125.794008c0 0 14.34266 33.746592 3.797489 70.870094l-80.993662 90.697675-27.41949-20.278859-0.031722-0.099261c7.615445 26.700105 13.09218 53.095265 14.794961 76.061326C415.541623 351.507982 415.583578 352.07387 415.621441 352.643851L415.621441 352.643851zM415.621441 352.643851M567.366494 600.269625l0-435.349249 45.77044 0 18.752086-52.405557 79.32772 52.405557 99.978039 0L811.194778 600.269625 567.366494 600.269625 567.366494 600.269625zM764.089947 211.746868l-51.967582 0-64.817238-42.817178-15.318894 42.817178-16.177448 0L615.808786 551.68714l148.280138 0L764.088924 211.746868 764.089947 211.746868zM764.089947 211.746868"  horiz-adv-x="1024" />
      
      <glyph glyph-name="csdn" unicode="&#58880;" d="M512 896c282.784 0 512-229.216 512-512s-229.216-512-512-512S0 101.21600000000001 0 384 229.216 896 512 896z m189.952-752l11.2 108.224c-31.904-9.536-100.928-16.128-147.712-16.128-134.464 0-205.728 47.296-195.328 146.304 11.584 110.688 113.152 145.696 232.64 145.696 54.784 0 122.432-8.8 151.296-18.336L768 623.296C724.544 633.76 678.272 640 599.584 640c-203.2 0-388.704-94.88-406.4-263.488C178.336 235.03999999999996 303.584 128 535.616 128c80.672 0 138.464 6.432 166.336 16z"  horiz-adv-x="1024" />
      
      <glyph glyph-name="notdef" unicode="&#58901;" d="M354.016 0V682.016h272V0h-272z m33.984 33.984H592V648H388v-614.016z"  horiz-adv-x="1024" />
      
      <glyph glyph-name="stackoverflow" unicode="&#58884;" d="M750.437854-109.974293q0-17.113783-0.942322-17.113783v-0.942321H171.001039q-17.113783 0-18.056105 0.942321V249.080773h61.737288v-316.316205h474.018345V249.080773h61.737287v-359.085463z m-123.504972 104.506546H265.962775v76.936029h360.970107v-76.936029z m8.57209 175.727847l-6.657048-75.993706L268.820138 126.578918l7.599371 76.936028z m23.740434 101.649183L639.304658 196.857898 290.675928 290.907709l19.940749 74.109063z m45.596224 87.392762l-38.939175-66.509692-311.574198 184.299938 39.911895 66.509692z m75.993707 54.137917l-62.710007-43.71158-204.240686 299.23282 63.652329 43.71158z m90.250126 18.056105l-75.993707-13.314098L733.354469 774.410069l75.993707 13.314098z"  horiz-adv-x="1024" />
      
      <glyph glyph-name="link" unicode="&#58885;" d="M344 92.992q-20-18.016-36.992-27.008t-32-8.992-28 6.496-27.008 20.512L173.984 128q-27.008 27.008-27.008 65.504t27.008 65.504l180.992 182.016q16.992 18.016 40.992 24t47.488 0 41.504-24l32-38.016q20.992-20.992 26.016-49.504t-7.008-53.504l79.008-60q26.016 26.016 35.488 62.016t0 71.488-35.488 62.496l-98.016 98.016q-40 40-96.992 40t-98.016-40l-238.016-242.016q-40.992-40.992-40.992-98.496T83.936 96l95.008-100.992q40-40.992 96.992-40.992t98.016 40.992l92.992 99.008-67.008 64zM950.016 504l-108 95.008q-40 40-96.992 40t-98.016-40l-34.016-36.992q-8-8.992-19.008-19.008l64.992-62.016 28.992 32q27.008 27.008 64.992 27.008t64.992-27.008l32-32.992q27.008-27.008 27.008-65.504t-27.008-65.504l-158.016-164.992q-8.992-8.992-20-15.008T649.92 160t-23.008-3.008-23.488 3.008-22.016 8.992-19.488 15.008l-27.008 44q-16 12.992-25.504 22.016t-12 17.504-3.008 12.512 2.496 14.016 4 15.008l-72 71.008q-20-20.992-31.488-44.992t-12.512-48.992 10.016-52 34.016-50.016l98.016-95.008q40-40.992 96.992-40.992t98.016 40.992l228 219.008q16 18.016 24.512 38.496t9.504 39.008-1.504 36.512-8 32.512-11.008 25.504-9.504 16.992z"  horiz-adv-x="1024" />
      
      <glyph glyph-name="googleplus" unicode="&#58886;" d="M230.016 201.984q-24-4.992-48-12.512t-44.992-20.512l-2.016-0.992-0.992-0.992q-38.016-24-52.992-52.992-15.008-32-15.008-56 0-26.016 12-48.992t36.512-41.504 62.016-29.504 86.496-11.008q59.008 0 104.512 15.008t75.488 40q15.008 12 26.496 25.504t19.488 28.992 12 31.488 4 32q0 23.008-6.496 41.504t-17.504 32.512l-4 6.016q-2.016 3.008-4.512 5.504t-4.992 5.504-5.504 5.504-6.016 5.504q-7.008 6.016-14.016 12.512t-14.016 12.512l-32.992 26.016q-3.008 2.016-4.992 4.992l-6.016 4-4.992 6.016q-8 8-8 23.488t8 25.504 16.992 19.008q15.008 11.008 28.992 24l8.992 8q4 4.992 8 9.504t8 9.504q11.008 15.008 16.992 34.016t6.016 44.512-7.008 45.504-16.992 35.008-20.992 25.504-20 17.504h56.992l59.008 32.992h-188.992q-19.008 0-39.488-2.496t-41.504-7.488q-44-8.992-83.008-40.992-30.016-24.992-44-56.992-8-16.992-11.488-32.992t-3.488-32q0-26.016 10.016-52t29.504-46.016 47.488-32.512 64.992-12.512q4 0 7.488 0.512t7.488 0.512 7.488 0.512 7.488 0.512q-4-8-7.008-15.488t-3.008-19.488q0-20.992 8.992-35.008 4-7.008 8.992-14.016t10.016-12.992q-15.008-0.992-36.992-3.008-10.016-0.992-21.504-2.496t-23.488-3.488z m76.992 130.016q-28.992 0-50.496 16.992t-36 41.504-20.992 52.512-6.496 51.008q0 18.016 4 35.488t16 31.488q11.008 14.016 28.512 22.496T277.024 592q28 0 50.016-16.992t36.512-42.496 22.016-54.496 7.488-54.016q0-12.992-4-32t-19.008-35.008q-6.016-4.992-12.992-9.504t-15.488-8-16.992-5.504-17.504-2.016z m1.984-147.488q10.016 0.512 12.992 0.512h16q2.016 0 4.992-0.992 12.992-8.992 24-16.992t20.992-15.008q19.008-15.008 31.008-28.992 6.016-7.008 10.496-13.504t7.488-14.496q6.016-14.016 6.016-31.008 0-43.008-34.496-70.496t-100.512-27.488q-74.016 0-117.504 31.008t-43.488 80q0 24 8.992 40.992 4 4.992 7.488 10.016t7.488 8.992l8 8q12.992 11.008 26.016 16.992 7.008 3.008 12 4.992t8.992 4q14.016 4 30.016 7.488t29.504 4.512 23.488 1.504zM784.992 672.992h-55.008v-171.008h-175.008v-54.016h175.008v-174.016h55.008v174.016h172.992v54.016h-172.992V672.992z"  horiz-adv-x="1024" />
      
      <glyph glyph-name="right" unicode="&#58887;" d="M676.992 384q0-15.008-11.008-26.016l-256-256q-11.008-11.008-26.016-11.008t-26.016 11.008-11.008 26.016V640q0 15.008 11.008 26.016t26.016 11.008 26.016-11.008l256-256q11.008-11.008 11.008-26.016z"  horiz-adv-x="1024" />
      
      <glyph glyph-name="linkedin" unicode="&#58888;" d="M292-51.008H137.984V440h154.016v-491.008z m-80.992 552h-0.992q-40.992 0-66.016 24.512t-24.992 61.504q0 36 25.504 60.512t67.488 24.512 67.008-24 26.016-60.992q0-36.992-26.016-61.504t-68-24.512z m693.984-552h-172.992v254.016q0 52-22.016 82.016t-64.992 30.016q-32 0-52.512-16.992t-31.488-43.008q-3.008-8.992-3.008-40v-266.016h-172.992q3.008 450.016 0 491.008h172.992v-76.992q4 12.992 16 27.008t31.008 26.496 46.496 20.512 59.488 8q40.992 0 76-14.016t62.016-40.512 41.504-69.504 14.496-99.008v-272.992z"  horiz-adv-x="1024" />
      
      <glyph glyph-name="search" unicode="&#58889;" d="M648.463614 378.913124q0 97.508318-69.323475 167.275416t-167.275416 69.767098-167.275416-69.767098-69.323475-167.275416 69.323475-166.831793 167.275416-69.323475 167.275416 69.323475 69.323475 166.831793z m269.87061-439.48244q0-27.74122-19.874307-47.585952t-47.585952-19.874307q-28.658041 0-47.142329 20.347505l-181.146026 180.229205q-94.284658-65.626617-210.720887-65.626617-75.80037 0-144.650647 29.574861t-118.772643 79.497227-79.02403 118.772644-29.101663 144.177449 29.101663 144.177449 79.02403 118.772643 118.772643 79.497227 144.650647 29.574862 144.650647-29.574862 118.772643-79.497227 79.02403-118.772643 29.101663-143.704252q0-116.465804-65.626617-210.720887l181.146026-181.146026q19.401109-20.347505 19.401109-48.059149z"  horiz-adv-x="1024" />
      
      <glyph glyph-name="x-v" unicode="&#58890;" d="M667.008 648q47.008 0 78.496-14.016t61.504-42.016q36.992 3.008 91.008 31.008 3.008 2.016 10.496 6.016t11.488 6.016q-20-54.016-58.016-83.008-0.992-0.992-4.992-4.512t-7.488-6.016-6.496-3.488q16.992 0 34.016 4t38.016 12.512 28 10.496v-0.992q-26.016-42.016-60-68-4-4-8.992-7.488t-10.016-7.488-8-7.008q0-72.992-8.992-114.016-8.992-42.016-23.008-80.992t-32.512-73.504-40.992-64.512-49.504-56-58.016-47.488-66.496-39.008-75.488-29.504q-52.992-16-121.504-20t-128.512 10.016q-60.992 15.008-104 34.016-7.008 3.008-13.504 6.016t-12.512 6.016-12.512 6.496-11.488 6.496l-16 10.016q0.992 0 27.488-2.496t29.504 0.512q6.016 0.992 16 1.504t18.496 1.504 15.488 2.016q64.992 15.008 106.016 39.008 3.008 0.992 9.504 4.512t11.008 6.496 10.016 6.016 10.016 6.496 7.488 7.488q-14.016 0-27.008 2.496t-26.016 6.496q-79.008 28-112 114.016 66.016-8 79.008 3.008-22.016 0.992-58.016 23.008-83.008 52.992-83.008 152 3.008-2.016 6.016-3.488t6.496-3.008 5.504-2.496q12-4.992 38.016-10.016 19.008-4 24-2.016h-0.992q-4 4.992-16 13.504t-16.992 14.496q-60.992 76-39.008 160 4.992 22.016 19.008 46.016h0.992q2.016-4 8-10.496t8-8.512q19.008-24 52-50.016 51.008-39.008 100-63.488t116-41.504q20-4 40-7.008t40-3.008q-12.992 36 0 83.008 24 86.016 100.992 119.008l6.016 2.016q3.008 0.992 6.016 2.496t6.496 2.496 6.496 1.504 6.496 1.504 7.488 2.016q2.016 0 4 0.512t4.512 0.512 4.512 0.512 4 0.512 4 0.992z"  horiz-adv-x="1024" />
      
      <glyph glyph-name="print" unicode="&#58891;" d="M296.992 543.008q-27.008-0.992-52.992-0.992H160.992q-18.016 0-36.512-6.016t-32.512-18.496-23.008-32-8.992-45.504v-76h912v40.992q0 16-0.512 30.016t-0.512 18.016q0 12.992-4.992 28.992t-16.992 29.504-31.488 22.496-49.504 8.992h-132.992v-96.992H296.96v96.992z m674.016-233.024v-52q0-23.008 0.512-52t0.512-58.016-10.496-47.488-26.016-30.016-32.992-16-31.488-4.512q-14.016-0.992-29.504-0.512t-29.504 0.512h-32l-44.992 128H296.032l-44-128H189.024q-20 0-44.992 0.992-24.992 0-40.992 9.504t-25.504 23.008-13.504 29.504-4 30.016v167.008h911.008z m-792-62.976q-12 0-20.992-8.512t-8.992-21.504 8.992-21.504 20.992-8.512q12.992 0 22.016 8.512t8.992 21.504-8.992 21.504-22.016 8.512z m152.992-124q-8-26.016-14.016-48-4.992-19.008-10.496-36.992t-7.488-24.992-3.008-15.008 0.992-14.496 9.504-10.496 21.504-4h364.992q23.008 0 34.016 12t2.016 38.016q-4.992 12.992-9.504 30.496t-9.504 34.496q-4.992 19.008-11.008 39.008h-368z m20 374.976V725.984q0 11.008 2.496 23.008t10.016 21.504 20.512 15.488 34.016 6.016h188q31.008 0 51.488-14.496t20.512-52.512v-227.008H352.032z"  horiz-adv-x="1024" />
      
      <glyph glyph-name="archive" unicode="&#58892;" d="M608 332q0 12.992-9.504 22.496T576 364h-128q-12.992 0-22.496-9.504t-9.504-22.496 9.504-22.496 22.496-9.504h128q12.992 0 22.496 9.504t9.504 22.496z m288 96v-480q0-12.992-9.504-22.496t-22.496-9.504H160q-12.992 0-22.496 9.504T128-52v480q0 12.992 9.504 22.496T160 460h704q12.992 0 22.496-9.504t9.504-22.496z m32 224v-128q0-12.992-9.504-22.496t-22.496-9.504H128q-12.992 0-22.496 9.504T96 524v128q0 12.992 9.504 22.496T128 684h768q12.992 0 22.496-9.504t9.504-22.496z"  horiz-adv-x="1024" />
      
      <glyph glyph-name="tags" unicode="&#58893;" d="M124 260q-24 24-40.992 65.504t-16.992 75.488l0.992 226.016q0 22.016 15.488 38.016t37.504 16h232.992q34.016 0 74.496-17.504t64.512-41.504l300-304.992q24-24.992 24-59.008t-24-58.016l-246.016-246.016q-24-24-58.016-24t-58.016 24z m178.016 184.512q22.016 22.496 22.016 53.504t-22.016 52.992q-15.008 15.008-34.016 20t-38.496 0-34.496-20q-22.016-22.016-22.016-52.992t22.016-53.504 53.504-22.496 53.504 22.496z m166.976 254.496l391.008-392.992q20-19.008 20-46.496t-19.008-47.488l-280.992-280.992h28.992q27.008-0.992 60 12.992t52.992 32.992l208.992 208q30.016 30.016 30.016 72t-30.016 72l-304 304.992q-20 19.008-52.512 36t-59.488 20.992z"  horiz-adv-x="1024" />
      
      <glyph glyph-name="left" unicode="&#58894;" d="M675.008 640v-512q0-15.008-11.008-26.016t-25.504-11.008-25.504 11.008l-256 256q-11.008 11.008-11.008 26.016t11.008 26.016l256 256q11.008 11.008 25.504 11.008t25.504-11.008 11.008-26.016z"  horiz-adv-x="1024" />
      
      <glyph glyph-name="rss" unicode="&#58895;" d="M130.016 23.488q0 45.504 32 77.504t77.504 32 77.504-32 32-76.992q0-23.008-8.512-43.008t-23.008-35.008-35.008-23.488-42.496-8.512q-46.016 0-78.016 32t-32 77.504zM624-86.016q0 100-39.008 191.488t-105.504 158.016-158.016 105.504-191.488 39.008v-136.992q96.992 0 179.008-48t130.016-130.016 48-179.008H624z m274.016 0q0 208.992-103.008 385.504T515.52 578.976 130.016 681.984v-136.992q128 0 244.992-50.016t201.504-134.496 134.496-201.504 50.016-244.992h136.992z"  horiz-adv-x="1024" />
      
      <glyph glyph-name="mail" unicode="&#58896;" d="M854.016 469.984v86.016L512 341.984 169.984 556v-86.016L512 257.984z m0 172q34.016 0 59.008-26.016t24.992-60v-512q0-34.016-24.992-60t-59.008-26.016H170.016q-34.016 0-59.008 26.016t-24.992 60v512q0 34.016 24.992 60t59.008 26.016h684z"  horiz-adv-x="1024" />
      
      <glyph glyph-name="user" unicode="&#58897;" d="M502.21716 750.009921q93.09376 0 158.249984-64.184212t65.156225-155.302591q0-59.763121-29.88156-110.245085t-81.335538-79.861841-111.718782-29.411232-111.718783 29.411232-81.335538 79.861841-29.88156 110.245085q0 45.08886 17.65301 85.725274t47.53457 70.047646 71.051013 46.531202 86.226959 17.151326z m0 0q93.09376 0 158.249984-64.184212t65.156225-155.302591q0-59.763121-29.88156-110.245085t-81.335538-79.861841-111.718782-29.411232-111.718783 29.411232-81.335538 79.861841-29.88156 110.245085q0 45.08886 17.65301 85.725274t47.53457 70.047646 71.051013 46.531202 86.226959 17.151326zM418.90624 237.539592h186.18752q119.557597 0 203.809173-82.809235t84.282933-200.391451v-18.625023q0-14.705616-9.312512-25.962153t-30.383244-18.123339-43.615164-10.786208-60.264805-5.894789-67.131606-2.44571-77.416131-0.501684h-263.572294q-26.463837 0-67.131607 1.975381t-60.766489 5.894789-42.611795 10.786208-31.355257 18.123339-8.810828 26.934166v18.625023q0 119.557597 86.226959 202.837161Q302.296038 237.539592 418.90624 237.539592z"  horiz-adv-x="1024" />
      
      <glyph glyph-name="home" unicode="&#58898;" d="M840.992 244.992v-274.016q0-15.008-11.008-26.016t-24.992-11.008h-220v220h-146.016v-220H218.976q-14.016 0-24.992 11.008t-11.008 26.016v274.016q0 0.992 3.008 2.016t3.008 2.016l328 270.016 328.992-270.016v-4h-4.992z m133.024 40l-36-43.008q-4-4.992-12-6.016h-0.992q-8 0-12 4L517.024 569.984 122.016 239.968q-7.008-4.992-14.016-4T96 241.984l-35.008 43.008q-4.992 4.992-4.512 12.992t6.496 12L473.984 652.992q18.016 14.016 43.008 14.016t44-14.016l139.008-116.992V647.008q0 8 4.992 13.504t12.992 5.504h110.016q8 0 12.992-5.504t4.992-13.504v-232.992l124.992-104q6.016-4 6.496-12t-3.488-12.992z"  horiz-adv-x="1024" />
      
      <glyph glyph-name="github-v" unicode="&#58899;" d="M66.91639 293.292525q0-143.729872 83.268796-258.720114t215.103126-161.589046q4.948546-0.983365 8.437905-0.983365t5.456088 1.490908 3.457638 2.474273 1.998451 4.472724 0.507543 4.472724v88.217341q-38.668443-4.948546-66.424708 0.983365t-42.633623 19.31836-22.80772 25.281993-12.403085 26.265357-5.456089 16.368266q-7.930362 12.878907-23.283542 23.791085t-23.283541 17.351631-1.998451 12.403085q43.616988 22.80772 98.146154-57.510981 29.754716-43.616988 103.0947-25.789536 2.981816 11.895542 7.930361 22.80772t11.895543 20.333447 14.877358 17.351631q-100.112884 17.859174-149.185961 74.830891t-49.073077 137.290418q0 75.338434 48.565534 130.850965-19.825904 57.510982 4.948545 118.955423 25.789536 2.981816 57.003439-8.913726t43.616988-20.333447 21.316812-15.35318q50.563985 13.893993 112.008426 13.893993 31.721446 0 59.985254-3.457637t53.038258-10.404635q64.426257 48.565534 120.953874 43.616989 22.80772-62.459527 5.963632-117.972058 15.860723-17.859174 26.7729-39.144265t16.368267-44.124531 5.456088-47.582169q0-81.302066-49.58062-137.797962t-149.693504-74.355069q37.685078-37.685078 37.685078-90.215793v-114.990242q0.983365-3.965181 0.983365-5.963632t1.490908-4.472724 4.472724-3.457637 7.930361-0.983365q133.832781 44.600353 218.592485 160.605681t84.759704 260.718565q0 91.199157-35.179084 173.484589t-94.656795 141.763142-142.238964 94.656795-172.977045 35.179084-172.977046-35.179084-142.238964-94.656795-94.656795-141.763142-35.179083-173.484589z"  horiz-adv-x="1024" />
      
      <glyph glyph-name="facebook" unicode="&#58900;" d="M674.016 352.992l16 124.992h-124v80q0 11.008 1.504 19.488t5.504 16.512 11.008 12.992 18.016 8 26.016 3.008h66.016v112q-12 0.992-39.008 3.008t-56.992 2.016q-72.992 0-116.512-43.488t-43.488-121.504v-92h-108v-124.992h108v-320h128v320h108z"  horiz-adv-x="1024" />
      
      <glyph glyph-name="lock" unicode="&#58883;" d="M762.849741 457.984996h-41.170714v84.285513q0 56.848823-27.938389 105.325535T617.795878 723.540803t-105.827234 27.43669q-43.114799 0-81.808372-16.179808t-66.631963-44.086842-44.086842-66.631963-16.179808-81.808371v-84.285513H261.118903q-34.303702 0-58.792909-24.489206t-24.489206-58.792909v-418.417368q0-34.303702 24.489206-59.294608t58.792909-24.990905h501.699482q17.653551 0 32.82996 6.867012t26.464648 18.123893 18.123893 26.934991 6.867012 32.328261V374.671525q0 34.303702-24.489206 58.792908T762.849741 457.953639z m-250.849741-376.274612q-13.734023 0-26.464648 4.421226t-23.015463 11.758582-17.653551 17.653551-11.758582 23.015463-4.421226 26.464648q0 35.275745 24.489206 59.764951t58.792908 24.489206 59.294607-24.489206 24.990906-59.294608-24.990906-59.294607-59.294607-24.489206z m130.316441 376.274612h-259.660839v84.285513q0 52.929295 38.223229 91.121168t91.622868 38.223229 91.622868-38.223229 38.22323-91.121168v-84.285513z"  horiz-adv-x="1024" />
      
      <glyph glyph-name="weibo" unicode="&#58881;" d="M672 676q-22.016-10.016-26.496-30.016t11.488-36q8-7.008 19.488-9.504t43.488-2.496q46.016 0 77.504-12.512t54.496-39.488q10.016-11.008 16-18.496t11.488-16.992 8-17.504 4-20.512 2.016-25.504 0.512-34.016q0-52 2.016-62.016t14.016-16.992q14.016-8 25.504-7.008t20.512 10.016 15.008 27.008 8.992 44q8 67.008-27.008 136.512t-96 105.504q-40 23.008-96.992 31.008t-88-4.992z m-303.008-115.008q-102.016-36-207.008-148-127.008-135.008-119.488-254.496t147.488-187.488q146.016-71.008 318.496-50.496t278.496 122.496q27.008 24.992 44 52t24 52.992 4 51.488-14.496 47.008-32.992 39.008-51.488 28.512q-16 4.992-22.016 9.504t-3.008 9.504q8 20.992 10.496 42.016t-2.496 35.008q-14.016 44-64 54.016t-128-16.992l-40.992-14.016 4 40.992q6.016 68.992-36 90.016-16.992 8.992-48.512 8.512t-60.512-11.488z m171.008-237.984q68.992-19.008 108.512-58.016T688 176q0-54.016-46.016-100.512t-124.992-73.504q-43.008-14.016-108.992-16t-104.992 8q-74.016 20.992-113.504 60.512t-39.488 91.488q0 28 12.992 54.016t40 51.008q16.992 16 32.512 27.008t33.504 19.488 43.008 17.504q116.992 39.008 228 8z m-193.984-60q-95.008-44-95.008-128 0-74.016 71.008-111.008 28-15.008 72-14.016t76 16.992q20 10.016 36.512 24.992t28 32 17.504 36.512 6.016 38.496q0 31.008-24 63.488t-56.992 45.504q-26.016 11.008-64.512 9.504t-66.496-14.496z m44.992-116q3.008-3.008 4.992-10.016t2.016-14.016q0-23.008-28-36.512t-44 1.504q-8.992 8.992-7.008 26.496t12 28 30.496 12 29.504-7.488z m291.008 401.984q-12.992-14.016-12.992-28t13.504-24 35.488-10.016q19.008 0 31.488-6.496t18.496-20.992 6.016-36.512q0-14.016 0.992-22.016t4-12.512 8-8.512q16.992-11.008 30.496-7.488t22.016 20.512 8.512 44q0 51.008-32.512 84.992t-84.512 38.016q-11.008 0.992-18.496 0.992t-12.992-1.504-8.992-3.488-8.512-7.008z"  horiz-adv-x="1024" />
      
      <glyph glyph-name="wechat" unicode="&#58882;" d="M675.008 431.008h11.008q4.992 0 10.016-0.512t11.008-1.504q-22.016 99.008-115.488 164t-214.496 64.992q-66.016 0-126.016-21.504t-104-58.496-70.016-88.512-26.016-108.512q0-128.992 131.008-220l-32.992-98.016 114.016 56.992q6.016-0.992 15.008-3.008t14.496-3.008 13.504-2.496 14.016-2.496 14.016-2.496 14.496-2.016 14.016-0.992 14.496-0.512q14.016 0 31.008 2.016-10.016 34.016-10.016 68 0 52.992 21.504 100.512t58.496 82.016 88.512 55.008 108.512 20.512z m-175.008 88.992q18.016 0 29.504-11.488t11.488-29.504-11.488-29.504-29.504-11.488q-8.992 0-18.016 3.008t-16 8.512-11.008 12.992-4 16.512 4 16.512 11.008 12.992 16 8.512 18.016 3.008z m-228.992-82.016q-19.008 0-34.016 11.488t-15.008 29.504q0 12 7.488 21.504t18.496 14.496 23.008 4.992q19.008 0 30.016-11.488t11.008-29.504-11.008-29.504-30.016-11.488z m701.984-260.992q0 96.992-83.008 167.008t-194.016 70.016q-116 0-196.992-69.504t-80.992-167.488 80.992-167.488 196.992-69.504q32 0 98.016 16.992l88.992-48.992-24 80.992q114.016 86.016 114.016 188z m-366.976 40.992q-12 0-22.496 10.016t-10.496 22.496 10.496 22.496 22.496 10.016q4.992 0 10.016-0.992t8.992-2.496 7.488-4 6.016-5.504 4.512-6.016 3.008-6.496 0.992-7.488q0-8-4.992-15.488t-14.496-12-21.504-4.512z m178.976 0q-8 0-15.488 4.512t-12 12-4.512 15.488 4.512 16 12 12.512 15.488 4.512q18.016 0 29.504-10.016t11.488-22.496-11.488-22.496-29.504-10.016z"  horiz-adv-x="1024" />
      
    </font>
</defs>
</svg>
